<svg width="71" height="72" viewBox="0 0 71 72" fill="none" xmlns="http://www.w3.org/2000/svg">
<g clip-path="url(#clip0_403_545)">
<path d="M35.4062 71.1534C54.8225 71.1534 70.5625 55.4134 70.5625 35.9972C70.5625 16.5809 54.8225 0.840912 35.4062 0.840912C15.99 0.840912 0.25 16.5809 0.25 35.9972C0.25 55.4134 15.99 71.1534 35.4062 71.1534Z" fill="#6DA544"/>
<path d="M35.4063 14.5977L64.4484 35.9972L35.4063 57.3966L6.36426 35.9972L35.4063 14.5977Z" fill="#FFDA44"/>
<path d="M35.4064 48.2253C42.1599 48.2253 47.6346 42.7506 47.6346 35.9971C47.6346 29.2437 42.1599 23.7689 35.4064 23.7689C28.653 23.7689 23.1782 29.2437 23.1782 35.9971C23.1782 42.7506 28.653 48.2253 35.4064 48.2253Z" fill="#F0F0F0"/>
<path d="M29.2921 35.2329C27.1657 35.2329 25.1136 35.5563 23.1819 36.1564C23.2674 42.8361 28.7062 48.2255 35.4062 48.2255C39.5492 48.2255 43.2082 46.1632 45.4201 43.0114C41.6358 38.2739 35.8129 35.2329 29.2921 35.2329V35.2329Z" fill="#0052B4"/>
<path d="M47.4077 38.34C47.555 37.5813 47.6345 36.7987 47.6345 35.9971C47.6345 29.2435 42.1597 23.7689 35.4063 23.7689C30.3671 23.7689 26.0413 26.8178 24.1692 31.1708C25.824 30.8279 27.5373 30.6473 29.2923 30.6473C36.3945 30.6472 42.8196 33.5995 47.4077 38.34V38.34Z" fill="#0052B4"/>
</g>
<defs>
<clipPath id="clip0_403_545">
<rect width="70.3125" height="70.3125" fill="white" transform="translate(0.25 0.840912)"/>
</clipPath>
</defs>
</svg>
